<?xml version="1.0" encoding="iso-8859-1"?>
<!-- Generator: Adobe Illustrator 18.0.0, SVG Export Plug-In . SVG Version: 6.00 Build 0)  -->
<!DOCTYPE svg PUBLIC "-//W3C//DTD SVG 1.1//EN" "http://www.w3.org/Graphics/SVG/1.1/DTD/svg11.dtd">
<svg version="1.1" id="Capa_1" xmlns="http://www.w3.org/2000/svg" xmlns:xlink="http://www.w3.org/1999/xlink" x="0px" y="0px"
	 viewBox="0 0 297 297" style="enable-background:new 0 0 297 297;" xml:space="preserve">
<path d="M223.221,177.605l-8.244-57.697c-3.332-21.893-22.877-39.703-43.569-39.703h-2.85c13.339-7.199,22.43-21.339,22.43-37.572
	C190.987,19.125,171.927,0,148.5,0s-42.487,19.125-42.487,42.632c0,16.233,9.091,30.373,22.43,37.572h-2.848
	c-20.693,0-40.239,17.811-43.585,39.791l-8.23,57.609c-0.542,3.795,1.213,7.552,4.473,9.57l21.874,13.552l10.715,75.114
	c1.582,11.87,11.711,21.159,23.085,21.159h29.147c11.374,0,21.503-9.288,23.087-21.157l10.712-75.116l21.876-13.552
	C222.008,185.156,223.763,181.399,223.221,177.605z M148.5,19.305c12.783,0,23.182,10.465,23.182,23.327
	c0,12.864-10.398,23.329-23.182,23.329c-12.783,0-23.182-10.465-23.182-23.329C125.318,29.77,135.717,19.305,148.5,19.305z
	 M182.87,186.69c-2.432,1.505-4.069,4.012-4.473,6.843l-11.356,79.633c-0.005,0.037-0.01,0.074-0.016,0.111
	c-0.335,2.563-2.593,4.418-3.952,4.418h-29.147c-1.358,0-3.616-1.855-3.951-4.418c-0.006-0.037-0.011-0.074-0.016-0.111
	l-11.358-79.633c-0.403-2.831-2.041-5.338-4.473-6.843l-20.346-12.604l7.325-51.274c1.923-12.632,13.137-23.304,24.487-23.304
	h45.812c11.35,0,22.563,10.672,24.472,23.216l7.339,51.362L182.87,186.69z"/>
<g>
</g>
<g>
</g>
<g>
</g>
<g>
</g>
<g>
</g>
<g>
</g>
<g>
</g>
<g>
</g>
<g>
</g>
<g>
</g>
<g>
</g>
<g>
</g>
<g>
</g>
<g>
</g>
<g>
</g>
</svg>
